#!OML:ASF X:\für Bonn\!DataBase\2005_08_12_Daniel\c3d\Daniel.ASF
:FULLY-SPECIFIED
:DEGREES
64
root -3.71567 7.68978 -2.79144 318.491 -79.0705 -350.056
lowerback 54.9841 -4.28519 0.295353
upperback 4.70524 -7.02862 -2.86459
thorax -16.4735 -3.47888 0.349905
lowerneck 4.78758 1.34596 -2.49558
upperneck -2.43908 1.67214 0.996653
head -1.60072 0.837466 0.686333
rclavicle -4.23411e-014 1.35174e-014
rhumerus 73.265 -13.648 -131.824
rradius 10.1087
rwrist 104.214
rhand -17.0579 15.3243
rfingers 7.12502
rthumb 9.17949 -14.4559
lclavicle -4.23411e-014 1.35174e-014
lhumerus 71.2114 2.57999 98.395
lradius 7.98771
lwrist -71.1953
lhand -17.8189 1.71181
lfingers 7.12502
lthumb 8.4451 31.523
rfemur 24.135 -48.2874 -126.731
rtibia 149.114
rfoot -59.0305 67.4832
rtoes -0.952765
lfemur -56.8316 48.4202 16.9415
ltibia 147.606
lfoot -18.8109 -48.3496
ltoes 2.49452
65
root -3.72374 7.51522 -2.79649 318.471 -79.0257 -350.554
lowerback 55.3681 -4.31205 0.343748
upperback 4.80979 -7.05606 -2.85349
thorax -16.3864 -3.50573 0.3563
lowerneck 4.86962 1.34476 -2.44618
upperneck -2.62972 1.67241 0.998492
head -1.67621 0.837947 0.678222
rclavicle -5.36719e-014 6.75868e-015
rhumerus 73.3483 -13.5531 -131.526
rradius 10.0337
rwrist 103.843
rhand -17.0422 15.2814
rfingers 7.12502
rthumb 9.19464 -14.4981
lclavicle -5.36719e-014 6.75868e-015
lhumerus 71.2775 2.60718 98.4717
lradius 7.99229
lwrist -71.2103
lhand -17.8764 1.58661
lfingers 7.12502
lthumb 8.38962 31.4
rfemur 24.0642 -46.9882 -129.946
rtibia 150.495
rfoot -62.1625 67.9242
rtoes -0.9559
lfemur -55.8933 51.2505 20.6861
ltibia 148.942
lfoot -18.6242 -50.5533
ltoes 2.82358
66
root -3.73145 7.34782 -2.80102 318.538 -78.9834 -351.105
lowerback 55.7183 -4.35023 0.387627
upperback 4.90548 -7.09532 -2.83101
thorax -16.3032 -3.53659 0.383317
lowerneck 4.98671 1.37037 -2.46198
upperneck -2.81071 1.70482 1.0396
head -1.75706 0.854038 0.692516
rclavicle -1.98785e-014 2.94201e-014
rhumerus 73.3277 -13.3999 -131.024
rradius 10.0126
rwrist 103.245
rhand -17.0027 15.2725
rfingers 7.12502
rthumb 9.23269 -14.5053
lclavicle -1.98785e-014 2.94201e-014
lhumerus 71.3356 2.66521 98.5516
lradius 8.00213
lwrist -71.2284
lhand -17.9145 1.51309
lfingers 7.12502
lthumb 8.35286 31.3279
rfemur 23.4825 -45.8967 -132.541
rtibia 151.815
rfoot -64.6996 68.5297
rtoes -0.852861
lfemur -54.8473 53.8106 24.4901
ltibia 150.202
lfoot -18.3699 -52.6396
ltoes 3.04433
67
root -3.73929 7.18639 -2.80511 318.522 -78.9436 -351.594
lowerback 56.0868 -4.36843 0.419725
upperback 4.99555 -7.11606 -2.79788
thorax -16.2243 -3.55946 0.418471
lowerneck 5.12725 1.38745 -2.48414
upperneck -2.9891 1.72553 1.0962
head -1.84168 0.863836 0.71308
rclavicle 2.57426e-014 -3.97569e-015
rhumerus 73.2031 -13.1504 -130.064
rradius 9.99713
rwrist 102.118
rhand -16.9071 15.1911
rfingers 7.12502
rthumb 9.32495 -14.5826
lclavicle 2.57426e-014 -3.97569e-015
lhumerus 71.3801 2.71984 98.6531
lradius 8.02438
lwrist -71.3051
lhand -17.956 1.39916
lfingers 7.12502
lthumb 8.31279 31.2156
rfemur 22.4604 -44.9581 -134.648
rtibia 153.068
rfoot -67.0424 69.238
rtoes -0.724504
lfemur -53.5865 56.097 28.4821
ltibia 151.405
lfoot -17.9716 -54.6566
ltoes 3.25271
68
root -3.74686 7.03196 -2.80892 318.421 -78.9069 -352.011
lowerback 56.4586 -4.38007 0.438135
upperback 5.10158 -7.14109 -2.77244
thorax -16.1249 -3.58542 0.452398
lowerneck 5.20136 1.41087 -2.52883
upperneck -3.15477 1.75593 1.17518
head -1.91135 0.878239 0.744585
rclavicle -4.47266e-015 -2.50469e-014
rhumerus 73.0648 -12.9217 -129.11
rradius 10.0198
rwrist 100.899
rhand -16.8223 15.1915
rfingers 7.12502
rthumb 9.40676 -14.5786
lclavicle -4.47266e-015 -2.50469e-014
lhumerus 71.4357 2.78011 98.7402
lradius 8.07633
lwrist -71.3479
lhand -17.8979 1.31243
lfingers 7.12502
lthumb 8.36886 31.1266
rfemur 21.169 -44.0152 -136.522
rtibia 154.263
rfoot -69.7408 70.008
rtoes -0.549131
lfemur -52.3433 58.022 32.3137
ltibia 152.533
lfoot -17.4678 -56.4581
ltoes 3.51651
69
root -3.75249 6.88459 -2.81284 318.359 -78.8736 -352.497
lowerback 56.8883 -4.40282 0.475585
upperback 5.17936 -7.16858 -2.75061
thorax -16.0649 -3.61134 0.477028
lowerneck 5.31 1.4417 -2.58041
upperneck -3.3017 1.79543 1.26772
head -1.98189 0.896627 0.781207
rclavicle -1.32192e-014 1.39149e-014
rhumerus 72.7766 -12.5992 -127.727
rradius 10.1089
rwrist 99.151
rhand -16.6634 15.1662
rfingers 7.12502
rthumb 9.56007 -14.5969
lclavicle -1.32192e-014 1.39149e-014
lhumerus 71.4557 2.83788 98.8215
lradius 8.12632
lwrist -71.5409
lhand -17.8058 1.22984
lfingers 7.12502
lthumb 8.45773 31.0405
rfemur 19.5675 -43.1745 -137.997
rtibia 155.392
rfoot -72.5157 70.8211
rtoes -0.438893
lfemur -51.2397 59.5659 35.905
ltibia 153.578
lfoot -16.793 -58.068
ltoes 3.66995
70
root -3.75791 6.74768 -2.81575 318.139 -78.8444 -352.811
lowerback 57.3055 -4.4054 0.488965
upperback 5.26155 -7.18838 -2.73427
thorax -15.9956 -3.63373 0.501559
lowerneck 5.38245 1.45837 -2.6138
upperneck -3.42736 1.8171 1.33454
head -2.03814 0.906479 0.807312
rclavicle 4.74101e-014 -2.66371e-014
rhumerus 72.3798 -12.1935 -125.939
rradius 10.2592
rwrist 96.9314
rhand -16.4894 15.1181
rfingers 7.12502
rthumb 9.72799 -14.6372
lclavicle 4.74101e-014 -2.66371e-014
lhumerus 71.4698 2.87817 98.9094
lradius 8.21374
lwrist -71.767
lhand -17.5985 1.17571
lfingers 7.12502
lthumb 8.65779 30.9782
rfemur 17.8164 -42.4228 -139.256
rtibia 156.435
rfoot -75.6486 71.5467
rtoes -0.373702
lfemur -50.2086 60.8469 39.2448
ltibia 154.548
lfoot -16.0954 -59.5057
ltoes 3.89273
71
root -3.76232 6.62339 -2.81857 317.996 -78.8174 -353.175
lowerback 57.711 -4.42136 0.50706
upperback 5.33696 -7.2199 -2.71601
thorax -15.932 -3.66073 0.532098
lowerneck 5.44511 1.487 -2.67039
upperneck -3.54553 1.85438 1.42301
head -2.09136 0.923792 0.843865
rclavicle 2.6339e-014 4.65156e-014
rhumerus 72.1535 -11.872 -124.685
rradius 10.2662
rwrist 95.1883
rhand -16.4036 15.0844
rfingers 7.12502
rthumb 9.81077 -14.6671
lclavicle 2.6339e-014 4.65156e-014
lhumerus 71.4686 2.95964 98.981
lradius 8.32912
lwrist -72.1101
lhand -17.2944 1.06267
lfingers 7.12502
lthumb 8.95124 30.8528
rfemur 15.9941 -41.7682 -140.213
rtibia 157.392
rfoot -78.9567 72.0377
rtoes -0.425189
lfemur -49.3995 61.8574 42.1521
ltibia 155.411
lfoot -15.3374 -60.7138
ltoes 3.94369
72
root -3.76593 6.511 -2.82037 317.862 -78.8013 -353.528
lowerback 58.1129 -4.44318 0.55645
upperback 5.39993 -7.23975 -2.70999
thorax -15.8852 -3.68274 0.529446
lowerneck 5.30726 1.49945 -2.6704
upperneck -3.50882 1.87794 1.49386
head -2.05589 0.934 0.8661
rclavicle -2.03754e-014 2.78299e-015
rhumerus 72.5045 -12.0342 -125.237
rradius 9.90709
rwrist 95.3599
rhand -16.5996 15.1069
rfingers 7.12502
rthumb 9.62171 -14.6533
lclavicle -2.03754e-014 2.78299e-015
lhumerus 71.397 3.00453 99.0579
lradius 8.49363
lwrist -72.5405
lhand -16.9086 1.03609
lfingers 7.12502
lthumb 9.32358 30.8099
rfemur 14.2109 -41.1841 -140.968
rtibia 158.243
rfoot -82.2683 72.3613
rtoes -0.538321
lfemur -48.7244 62.6639 44.7056
ltibia 156.181
lfoot -14.7429 -61.7321
ltoes 3.96586
73
root -3.76596 6.46403 -2.82173 317.706 -78.786 -353.784
lowerback 58.4508 -4.44216 0.559453
upperback 5.45241 -7.25399 -2.68483
thorax -15.8392 -3.69955 0.565431
lowerneck 5.26956 1.51982 -2.71782
upperneck -3.53862 1.9062 1.56268
head -2.0613 0.947196 0.895456
rclavicle 2.97183e-014 -2.14687e-014
rhumerus 72.7314 -12.1472 -125.783
rradius 9.69884
rwrist 95.5595
rhand -16.7099 15.1639
rfingers 7.12502
rthumb 9.51525 -14.6012
lclavicle 2.97183e-014 -2.14687e-014
lhumerus 71.2728 3.09218 99.1424
lradius 8.69408
lwrist -73.0032
lhand -16.5509 0.945201
lfingers 7.12502
lthumb 9.66868 30.7033
rfemur 13.4393 -40.4455 -141.73
rtibia 158.634
rfoot -85.1993 71.8142
rtoes -0.94928
lfemur -46.637 63.5111 47.8325
ltibia 156.466
lfoot -15.235 -62.5997
ltoes 3.98065
